<svg xmlns="http://www.w3.org/2000/svg" viewBox="0 0 48 64">
  <rect x="2" y="2" width="44" height="60" rx="6" fill="#fff" stroke="#ddd" stroke-width="2"/>
  <g>
        <rect x="10" y="18" width="4" height="12" rx="1.5" fill="#10b981"/>
        <rect x="10" y="23.5" width="4" height="1" fill="#065f46"/>
        <rect x="10" y="19" width="4" height="1" fill="white" opacity="0.2"/>
      </g><g>
        <rect x="22" y="18" width="4" height="12" rx="1.5" fill="#3b82f6"/>
        <rect x="22" y="23.5" width="4" height="1" fill="#1e3a8a"/>
        <rect x="22" y="19" width="4" height="1" fill="white" opacity="0.2"/>
      </g><g>
        <rect x="34" y="18" width="4" height="12" rx="1.5" fill="#10b981"/>
        <rect x="34" y="23.5" width="4" height="1" fill="#065f46"/>
        <rect x="34" y="19" width="4" height="1" fill="white" opacity="0.2"/>
      </g><g>
        <rect x="10" y="34" width="4" height="12" rx="1.5" fill="#3b82f6"/>
        <rect x="10" y="39.5" width="4" height="1" fill="#1e3a8a"/>
        <rect x="10" y="35" width="4" height="1" fill="white" opacity="0.2"/>
      </g><g>
        <rect x="22" y="34" width="4" height="12" rx="1.5" fill="#10b981"/>
        <rect x="22" y="39.5" width="4" height="1" fill="#065f46"/>
        <rect x="22" y="35" width="4" height="1" fill="white" opacity="0.2"/>
      </g><g>
        <rect x="34" y="34" width="4" height="12" rx="1.5" fill="#3b82f6"/>
        <rect x="34" y="39.5" width="4" height="1" fill="#1e3a8a"/>
        <rect x="34" y="35" width="4" height="1" fill="white" opacity="0.2"/>
      </g>
</svg>