<svg xmlns="http://www.w3.org/2000/svg" viewBox="0 0 48 64">
  <rect x="2" y="2" width="44" height="60" rx="6" fill="#fff" stroke="#ddd" stroke-width="2"/>
  <g>
        <rect x="10" y="10" width="4" height="12" rx="1.5" fill="#10b981"/>
        <rect x="10" y="15.5" width="4" height="1" fill="#065f46"/>
        <rect x="10" y="11" width="4" height="1" fill="white" opacity="0.2"/>
      </g><g>
        <rect x="22" y="10" width="4" height="12" rx="1.5" fill="#3b82f6"/>
        <rect x="22" y="15.5" width="4" height="1" fill="#1e3a8a"/>
        <rect x="22" y="11" width="4" height="1" fill="white" opacity="0.2"/>
      </g><g>
        <rect x="34" y="10" width="4" height="12" rx="1.5" fill="#10b981"/>
        <rect x="34" y="15.5" width="4" height="1" fill="#065f46"/>
        <rect x="34" y="11" width="4" height="1" fill="white" opacity="0.2"/>
      </g><g>
        <rect x="10" y="26" width="4" height="12" rx="1.5" fill="#3b82f6"/>
        <rect x="10" y="31.5" width="4" height="1" fill="#1e3a8a"/>
        <rect x="10" y="27" width="4" height="1" fill="white" opacity="0.2"/>
      </g><g>
        <rect x="22" y="26" width="4" height="12" rx="1.5" fill="#10b981"/>
        <rect x="22" y="31.5" width="4" height="1" fill="#065f46"/>
        <rect x="22" y="27" width="4" height="1" fill="white" opacity="0.2"/>
      </g><g>
        <rect x="34" y="26" width="4" height="12" rx="1.5" fill="#3b82f6"/>
        <rect x="34" y="31.5" width="4" height="1" fill="#1e3a8a"/>
        <rect x="34" y="27" width="4" height="1" fill="white" opacity="0.2"/>
      </g><g>
        <rect x="10" y="42" width="4" height="12" rx="1.5" fill="#10b981"/>
        <rect x="10" y="47.5" width="4" height="1" fill="#065f46"/>
        <rect x="10" y="43" width="4" height="1" fill="white" opacity="0.2"/>
      </g>
</svg>