<svg xmlns="http://www.w3.org/2000/svg" viewBox="0 0 48 64">
  <rect x="2" y="2" width="44" height="60" rx="6" fill="#fff" stroke="#ddd" stroke-width="2"/>
  <g>
        <circle cx="14" cy="20" r="4" fill="#e11d48"/>
        <circle cx="14" cy="20" r="2" fill="none" stroke="white" stroke-width="0.5" opacity="0.4"/>
        <circle cx="13" cy="19" r="1" fill="white" opacity="0.3"/>
      </g><g>
        <circle cx="24" cy="20" r="4" fill="#3b82f6"/>
        <circle cx="24" cy="20" r="2" fill="none" stroke="white" stroke-width="0.5" opacity="0.4"/>
        <circle cx="23" cy="19" r="1" fill="white" opacity="0.3"/>
      </g><g>
        <circle cx="34" cy="20" r="4" fill="#10b981"/>
        <circle cx="34" cy="20" r="2" fill="none" stroke="white" stroke-width="0.5" opacity="0.4"/>
        <circle cx="33" cy="19" r="1" fill="white" opacity="0.3"/>
      </g><g>
        <circle cx="14" cy="32" r="4" fill="#e11d48"/>
        <circle cx="14" cy="32" r="2" fill="none" stroke="white" stroke-width="0.5" opacity="0.4"/>
        <circle cx="13" cy="31" r="1" fill="white" opacity="0.3"/>
      </g><g>
        <circle cx="24" cy="32" r="4" fill="#3b82f6"/>
        <circle cx="24" cy="32" r="2" fill="none" stroke="white" stroke-width="0.5" opacity="0.4"/>
        <circle cx="23" cy="31" r="1" fill="white" opacity="0.3"/>
      </g><g>
        <circle cx="34" cy="32" r="4" fill="#10b981"/>
        <circle cx="34" cy="32" r="2" fill="none" stroke="white" stroke-width="0.5" opacity="0.4"/>
        <circle cx="33" cy="31" r="1" fill="white" opacity="0.3"/>
      </g><g>
        <circle cx="14" cy="44" r="4" fill="#e11d48"/>
        <circle cx="14" cy="44" r="2" fill="none" stroke="white" stroke-width="0.5" opacity="0.4"/>
        <circle cx="13" cy="43" r="1" fill="white" opacity="0.3"/>
      </g><g>
        <circle cx="24" cy="44" r="4" fill="#3b82f6"/>
        <circle cx="24" cy="44" r="2" fill="none" stroke="white" stroke-width="0.5" opacity="0.4"/>
        <circle cx="23" cy="43" r="1" fill="white" opacity="0.3"/>
      </g>
</svg>